<?xml version="1.0" standalone="no"?>
<!DOCTYPE svg PUBLIC "-//W3C//DTD SVG 20010904//EN"
 "http://www.w3.org/TR/2001/REC-SVG-20010904/DTD/svg10.dtd">
<svg version="1.0" xmlns="http://www.w3.org/2000/svg"
 width="564.000000pt" height="846.000000pt" viewBox="0 0 564.000000 846.000000"
 preserveAspectRatio="xMidYMid meet">

<g transform="translate(0.000000,846.000000) scale(0.100000,-0.100000)"
fill="#f7f7f7" stroke="none">
<path d="M0 4230 l0 -4230 2820 0 2820 0 0 4230 0 4230 -2820 0 -2820 0 0
-4230z m4282 3921 c42 -11 102 -32 132 -47 107 -52 200 -175 226 -297 7 -37
10 -1083 8 -3577 -3 -3340 -4 -3528 -21 -3585 -27 -93 -76 -184 -123 -231 -80
-80 -229 -134 -370 -134 -42 0 -69 7 -117 33 l-62 32 -1120 0 -1120 0 -69 -32
c-52 -25 -82 -33 -125 -33 -129 0 -260 40 -345 105 -47 36 -101 118 -126 189
-11 32 -24 106 -30 165 -6 67 -10 804 -10 2026 0 1303 -3 1921 -10 1923 -6 2
-10 90 -10 249 0 231 1 245 19 250 16 4 17 10 10 41 -5 21 -8 136 -7 256 1
161 -2 221 -10 224 -18 6 -17 951 1 957 9 4 12 123 12 548 0 487 2 548 18 606
39 143 114 237 232 292 124 59 70 57 1565 58 1338 1 1377 1 1452 -18z"/>
<path d="M1626 7790 c-72 -13 -135 -56 -173 -119 -26 -43 -33 -67 -38 -134 -4
-45 -5 -374 -3 -732 l3 -650 28 -57 c28 -58 72 -98 132 -124 44 -18 546 -21
606 -2 55 16 118 73 145 132 l24 51 0 720 0 720 -24 50 c-12 28 -40 65 -61 84
-72 62 -85 65 -350 67 -132 2 -262 -1 -289 -6z"/>
</g>
</svg>
